<?xml version="1.0" standalone="no"?>
<!DOCTYPE svg PUBLIC "-//W3C//DTD SVG 20010904//EN"
 "http://www.w3.org/TR/2001/REC-SVG-20010904/DTD/svg10.dtd">
<svg version="1.0" xmlns="http://www.w3.org/2000/svg"
 width="2400.000000pt" height="1350.000000pt" viewBox="0 0 2400.000000 1350.000000"
 preserveAspectRatio="xMidYMid meet">

<g transform="translate(0.000000,1350.000000) scale(0.100000,-0.100000)"
fill="#000000" stroke="none">
<path d="M7667 11980 c-4 -19 -8 -194 -10 -388 -2 -298 0 -347 11 -310 9 32
12 133 10 388 -2 190 -6 329 -11 310z"/>
<path d="M16830 12000 c0 -5 5 -10 10 -10 6 0 10 5 10 10 0 6 -4 10 -10 10 -5
0 -10 -4 -10 -10z"/>
<path d="M7750 11848 c0 -197 9 -279 28 -276 21 4 29 -30 32 -122 l3 -75 7 60
c4 33 8 171 9 308 l1 247 -40 0 -40 0 0 -142z"/>
<path d="M7262 11930 c0 -14 2 -19 5 -12 2 6 2 18 0 25 -3 6 -5 1 -5 -13z"/>
<path d="M16650 11889 c0 -5 5 -7 10 -4 6 3 10 8 10 11 0 2 -4 4 -10 4 -5 0
-10 -5 -10 -11z"/>
<path d="M16988 11893 c7 -3 16 -2 19 1 4 3 -2 6 -13 5 -11 0 -14 -3 -6 -6z"/>
<path d="M15196 11723 c-4 -8 -6 -36 -6 -61 l0 -47 30 54 c17 30 30 55 30 56
0 2 -11 5 -24 7 -16 3 -27 0 -30 -9z"/>
<path d="M16895 11710 c-10 -11 -13 -20 -7 -20 6 0 16 9 22 20 6 11 9 20 7 20
-2 0 -12 -9 -22 -20z"/>
<path d="M7198 11693 c12 -2 32 -2 45 0 12 2 2 4 -23 4 -25 0 -35 -2 -22 -4z"/>
<path d="M8813 11630 c0 -36 2 -50 4 -32 2 17 2 47 0 65 -2 17 -4 3 -4 -33z"/>
<path d="M10743 11643 c9 -2 23 -2 30 0 6 3 -1 5 -18 5 -16 0 -22 -2 -12 -5z"/>
<path d="M6657 11583 c-22 -69 -26 -93 -17 -93 16 0 28 27 34 83 4 31 5 57 3
57 -3 0 -12 -21 -20 -47z"/>
<path d="M13548 11593 c7 -3 16 -2 19 1 4 3 -2 6 -13 5 -11 0 -14 -3 -6 -6z"/>
<path d="M6801 11566 c-6 -16 -10 -34 -8 -40 6 -17 29 33 24 52 -3 13 -7 10
-16 -12z"/>
<path d="M9731 11475 c1 -50 4 -69 8 -50 3 16 16 34 29 41 l22 11 -22 29 c-12
16 -25 33 -30 39 -4 5 -7 -27 -7 -70z"/>
<path d="M9895 11515 c9 -16 28 -43 42 -60 l25 -30 -18 33 c-10 18 -29 45 -42
60 l-23 27 16 -30z"/>
<path d="M6690 11496 c-15 -39 -12 -176 5 -211 14 -30 14 -30 9 15 -3 25 -7
54 -9 65 -2 11 0 49 4 85 9 72 7 86 -9 46z"/>
<path d="M7501 11420 c0 -58 3 -111 8 -118 23 -36 28 130 6 188 -13 33 -14 29
-14 -70z"/>
<path d="M12058 11513 c-20 -5 -22 -12 -8 -33 8 -13 11 -12 24 5 25 33 22 38
-16 28z"/>
<path d="M14295 11489 c-10 -15 3 -25 16 -12 7 7 7 13 1 17 -6 3 -14 1 -17 -5z"/>
<path d="M14635 11491 c-3 -5 -1 -12 5 -16 5 -3 10 1 10 9 0 18 -6 21 -15 7z"/>
<path d="M14075 11480 c-3 -5 -2 -10 4 -10 5 0 13 5 16 10 3 6 2 10 -4 10 -5
0 -13 -4 -16 -10z"/>
<path d="M6842 11450 c0 -14 2 -19 5 -12 2 6 2 18 0 25 -3 6 -5 1 -5 -13z"/>
<path d="M16072 11400 c0 -19 2 -27 5 -17 2 9 2 25 0 35 -3 9 -5 1 -5 -18z"/>
<path d="M16062 11340 c0 -14 2 -19 5 -12 2 6 2 18 0 25 -3 6 -5 1 -5 -13z"/>
<path d="M6840 11322 c0 -17 4 -34 10 -37 6 -4 7 6 3 27 -8 44 -13 48 -13 10z"/>
<path d="M10231 11311 c-1 -34 2 -42 11 -33 8 8 8 20 1 44 l-11 33 -1 -44z"/>
<path d="M12047 11327 c-3 -7 8 -20 25 -30 l29 -17 -18 30 c-19 33 -28 37 -36
17z"/>
<path d="M10511 11290 c0 -8 4 -22 9 -30 12 -18 12 -2 0 25 -6 13 -9 15 -9 5z"/>
<path d="M14310 11291 c0 -6 5 -13 10 -16 6 -3 10 1 10 9 0 9 -4 16 -10 16 -5
0 -10 -4 -10 -9z"/>
<path d="M16490 11266 c0 -39 0 -39 20 -21 14 13 17 21 9 26 -6 3 -15 13 -20
20 -6 9 -9 1 -9 -25z"/>
<path d="M17217 11293 c-4 -3 -7 -19 -7 -34 l0 -28 29 17 c28 15 29 18 14 34
-17 19 -26 22 -36 11z"/>
<path d="M17090 11274 c-25 -7 -40 -13 -34 -13 5 -1 19 -7 29 -15 16 -12 17
-16 6 -29 -9 -12 -24 -14 -62 -10 -40 5 -49 3 -49 -10 0 -10 14 -17 43 -22 64
-10 87 -29 87 -70 0 -22 -8 -43 -20 -55 l-20 -20 35 0 35 0 0 130 c0 72 -1
129 -2 129 -2 -1 -23 -7 -48 -15z"/>
<path d="M6645 11233 c4 -21 11 -45 15 -53 14 -24 23 31 11 63 -16 42 -35 34
-26 -10z"/>
<path d="M6790 11249 c1 -8 7 -25 15 -39 l14 -25 1 26 c0 15 -7 32 -15 39 -12
10 -15 10 -15 -1z"/>
<path d="M10090 11241 c16 -32 30 -34 30 -7 0 19 -5 26 -20 26 -17 0 -19 -3
-10 -19z"/>
<path d="M16630 11231 c5 -11 10 -58 10 -105 0 -78 2 -86 19 -86 17 0 18 5 14
40 -8 59 14 80 84 80 46 0 54 3 51 18 -4 23 -62 28 -93 8 -22 -14 -25 -14 -39
0 -9 8 -16 24 -16 34 0 10 -7 21 -16 24 -24 9 -26 8 -14 -13z"/>
<path d="M10530 11231 c0 -6 4 -13 10 -16 6 -3 7 1 4 9 -7 18 -14 21 -14 7z"/>
<path d="M16884 11182 c8 -52 12 -59 29 -54 14 4 18 1 15 -9 -3 -8 -13 -13
-22 -13 -12 1 -16 -7 -16 -32 0 -42 11 -43 29 -3 10 22 17 28 30 23 30 -14 88
-16 96 -4 10 16 5 19 -51 29 -59 11 -88 42 -80 83 3 15 1 28 -3 28 -5 0 -16 2
-23 5 -12 5 -13 -4 -4 -53z"/>
<path d="M13428 11213 c7 -3 16 -2 19 1 4 3 -2 6 -13 5 -11 0 -14 -3 -6 -6z"/>
<path d="M16502 11198 c-7 -7 -11 -30 -11 -52 1 -28 3 -33 6 -16 6 34 21 50
45 50 17 0 18 3 8 15 -15 18 -32 19 -48 3z"/>
<path d="M17221 11196 c-7 -9 -11 -41 -9 -83 l3 -68 38 -3 37 -3 0 73 c0 44
-5 79 -12 86 -16 16 -43 15 -57 -2z"/>
<path d="M6995 11180 c10 -11 20 -20 23 -20 3 0 -3 9 -13 20 -10 11 -20 20
-23 20 -3 0 3 -9 13 -20z"/>
<path d="M10000 11171 c5 -11 15 -23 21 -27 6 -3 3 5 -6 20 -20 30 -30 35 -15
7z"/>
<path d="M7696 11155 c-3 -8 -1 -15 4 -15 6 0 10 7 10 15 0 8 -2 15 -4 15 -2
0 -6 -7 -10 -15z"/>
<path d="M8984 11151 c4 -6 16 -16 28 -22 15 -8 18 -8 14 0 -4 6 -16 16 -28
22 -15 8 -18 8 -14 0z"/>
<path d="M16741 11106 c-16 -19 12 -40 44 -32 37 9 34 46 -4 46 -16 0 -34 -6
-40 -14z"/>
<path d="M7188 11083 c7 -3 16 -2 19 1 4 3 -2 6 -13 5 -11 0 -14 -3 -6 -6z"/>
<path d="M6720 11062 c6 -13 14 -21 18 -18 3 4 -2 14 -12 24 -18 16 -18 16 -6
-6z"/>
<path d="M6909 11057 c14 -18 51 -42 51 -33 0 3 -15 15 -32 27 -24 17 -29 18
-19 6z"/>
<path d="M9329 11053 c-13 -16 -12 -17 4 -4 16 13 21 21 13 21 -2 0 -10 -8
-17 -17z"/>
<path d="M7183 10793 c26 -2 67 -2 90 0 23 2 2 3 -48 3 -49 0 -68 -1 -42 -3z"/>
<path d="M16695 8680 c-44 -4 -123 -21 -175 -38 -52 -16 -121 -35 -152 -42
-32 -7 -58 -16 -58 -19 1 -3 24 -17 53 -30 34 -16 82 -54 136 -108 l84 -85 45
12 c87 22 201 24 294 5 l87 -17 83 85 c51 52 104 95 138 113 42 21 50 29 35
32 -11 2 -58 17 -105 33 -172 58 -309 75 -465 59z"/>
<path d="M18625 8679 c-173 -19 -279 -68 -409 -187 -112 -102 -150 -151 -201
-252 -73 -148 -89 -225 -83 -401 4 -118 8 -142 33 -204 42 -103 72 -145 196
-276 121 -128 147 -145 319 -210 80 -30 93 -32 225 -33 146 -1 222 13 342 65
48 20 221 156 278 217 44 48 91 136 100 187 4 22 14 63 23 90 14 40 17 88 17
235 -1 159 -4 197 -24 275 -39 156 -50 173 -173 277 -170 144 -197 163 -273
185 -136 40 -229 48 -370 32z m120 -309 c0 -18 -6 -26 -23 -28 -13 -2 -25 3
-28 12 -10 26 4 48 28 44 17 -2 23 -10 23 -28z m-267 -22 c-2 -13 -10 -23 -18
-23 -8 0 -16 10 -18 23 -3 17 2 22 18 22 16 0 21 -5 18 -22z m522 3 c0 -27
-19 -36 -37 -18 -18 18 -9 37 18 37 12 0 19 -7 19 -19z m-446 -97 c9 -8 16
-19 16 -24 0 -13 -30 -40 -44 -40 -17 0 -36 21 -36 40 0 19 19 40 36 40 7 0
20 -7 28 -16z m384 4 c18 -18 14 -46 -7 -58 -38 -20 -71 13 -51 51 12 21 40
25 58 7z m-188 -32 c28 -35 -11 -93 -47 -70 -36 22 -23 84 17 84 10 0 23 -7
30 -14z m-410 -91 c0 -27 -26 -40 -46 -24 -19 16 -18 36 3 47 24 14 43 4 43
-23z m814 11 c9 -13 7 -20 -7 -31 -35 -25 -70 10 -40 40 18 18 32 16 47 -9z
m-465 -52 c24 -30 26 -43 10 -77 -22 -48 -95 -56 -124 -14 -53 76 57 163 114
91z m168 4 c39 -36 29 -92 -20 -113 -39 -16 -80 -3 -96 31 -16 35 -14 47 10
78 26 33 73 35 106 4z m-357 -23 c15 -19 6 -61 -16 -69 -27 -10 -53 3 -60 30
-8 30 11 54 41 54 12 0 28 -7 35 -15z m514 -7 c12 -20 2 -44 -27 -62 -19 -12
-57 17 -57 44 0 40 62 53 84 18z m-410 -120 c21 -29 20 -77 -1 -100 -23 -25
-84 -24 -108 2 -44 48 -10 120 56 120 28 0 42 -6 53 -22z m346 -5 c37 -47 4
-113 -57 -113 -42 0 -73 30 -73 70 0 67 88 96 130 43z m-586 -19 c19 -18 19
-20 6 -45 -6 -10 -19 -19 -28 -19 -39 0 -57 50 -24 69 23 14 28 14 46 -5z
m764 4 c18 -18 14 -46 -7 -58 -11 -5 -22 -10 -25 -10 -8 0 -36 31 -36 40 0 13
30 40 44 40 6 0 17 -5 24 -12z m132 -29 c0 -12 -7 -19 -19 -19 -26 0 -36 17
-21 35 15 18 40 8 40 -16z m-1035 11 c9 -15 -14 -40 -31 -33 -22 8 -18 43 5
43 11 0 23 -5 26 -10z m435 -90 c17 0 50 -44 50 -66 0 -37 -37 -74 -75 -74
-56 0 -96 70 -62 112 17 22 50 38 65 33 8 -3 18 -5 22 -5z m203 -22 c40 -47 5
-118 -58 -118 -24 0 -39 7 -54 26 -24 30 -26 43 -10 78 22 48 86 56 122 14z
m-369 -14 c19 -18 21 -45 4 -62 -39 -39 -100 17 -63 58 22 24 38 25 59 4z
m510 0 c31 -31 13 -74 -31 -74 -21 0 -43 25 -43 49 0 14 29 41 45 41 7 0 21
-7 29 -16z m-660 -109 c7 -20 -18 -49 -38 -42 -25 10 -32 38 -12 53 20 14 42
9 50 -11z m810 1 c9 -13 7 -20 -7 -31 -25 -18 -47 -8 -47 20 0 37 34 44 54 11z
m-406 -38 c39 -39 -17 -100 -58 -63 -14 13 -18 25 -14 39 11 36 48 48 72 24z
m-194 -44 c27 -27 12 -64 -26 -64 -15 0 -38 27 -38 44 0 8 31 36 40 36 5 0 16
-7 24 -16z m390 -6 c13 -21 -2 -51 -26 -56 -22 -4 -48 25 -41 46 13 36 47 40
67 10z m-458 -147 c-4 -6 -16 -11 -27 -11 -21 0 -27 35 -6 43 16 6 41 -18 33
-32z m511 28 c16 -16 5 -39 -18 -39 -12 0 -19 7 -19 18 0 31 17 41 37 21z
m-252 -39 c0 -18 -6 -26 -23 -28 -13 -2 -25 3 -28 12 -10 26 4 48 28 44 17 -2
23 -10 23 -28z"/>
<path d="M8975 8669 c-78 -12 -116 -24 -195 -65 -110 -57 -263 -189 -281 -244
-6 -19 -20 -47 -31 -62 -10 -14 -25 -50 -34 -80 -9 -29 -28 -81 -41 -115 -22
-53 -25 -78 -27 -185 -1 -113 2 -132 31 -226 18 -57 43 -124 57 -150 13 -26
34 -67 45 -92 26 -59 85 -119 174 -178 186 -123 240 -142 421 -147 194 -6 318
30 470 135 100 69 153 135 224 280 78 158 85 197 80 425 l-5 180 -35 65 c-20
36 -51 94 -69 129 -52 98 -153 185 -324 277 -65 35 -96 45 -165 53 -97 13
-209 12 -295 0z m-10 -253 l0 -49 -68 -36 c-87 -46 -166 -125 -210 -210 -48
-91 -61 -155 -55 -268 5 -85 9 -102 47 -177 48 -98 130 -182 220 -224 31 -15
59 -31 63 -37 13 -18 9 -93 -5 -98 -20 -8 -123 37 -185 79 -112 78 -210 225
-243 364 -29 125 -9 283 53 410 47 98 161 208 269 260 46 22 91 39 99 38 11
-2 15 -17 15 -52z m377 37 c134 -52 255 -166 318 -298 48 -101 64 -169 63
-270 -1 -166 -56 -300 -173 -417 -61 -62 -95 -86 -163 -119 -48 -23 -94 -39
-102 -35 -12 4 -15 17 -13 53 3 46 3 47 67 79 123 63 230 199 261 333 8 33 11
90 8 148 -5 85 -9 102 -47 177 -48 98 -130 182 -220 224 -68 33 -71 36 -71 88
0 60 6 63 72 37z m-188 -159 c12 -4 16 -20 16 -53 0 -47 1 -48 39 -60 63 -18
124 -102 107 -146 -3 -10 -19 -15 -46 -15 -36 0 -43 4 -61 35 -37 62 -140 70
-182 13 -15 -21 -17 -32 -10 -54 12 -37 41 -51 140 -68 146 -25 186 -65 181
-176 -4 -83 -31 -123 -105 -157 -50 -23 -53 -27 -53 -61 0 -54 -10 -64 -61
-60 l-44 3 -5 49 c-5 48 -6 49 -51 62 -57 17 -115 77 -125 129 -8 44 3 55 58
55 34 0 39 -3 56 -44 16 -35 28 -46 57 -56 85 -28 170 15 163 83 -4 43 -40 64
-141 83 -140 26 -192 77 -184 181 5 70 41 116 107 140 49 17 50 19 50 58 0 23
5 46 12 53 13 13 56 16 82 6z"/>
<path d="M10850 8666 c-64 -13 -194 -76 -247 -117 -20 -16 -39 -29 -42 -29 -7
0 -83 -76 -145 -145 -20 -21 -39 -48 -42 -59 -4 -11 -19 -37 -35 -59 -43 -60
-51 -122 -47 -376 3 -211 4 -228 25 -261 12 -19 30 -58 41 -86 25 -67 99 -155
194 -233 115 -93 154 -116 253 -147 83 -27 102 -29 240 -29 128 0 160 4 217
23 137 45 198 82 297 177 109 106 180 208 205 297 10 35 26 86 37 114 11 28
22 75 26 104 5 40 8 49 14 35 14 -37 10 52 -5 97 -34 107 -49 157 -63 208 -26
99 -95 193 -230 312 -107 96 -222 155 -342 178 -72 13 -282 11 -351 -4z m92
-387 c143 -85 148 -90 148 -159 l0 -57 -49 -26 c-27 -15 -51 -27 -55 -27 -3 0
-6 24 -6 53 0 29 -6 60 -12 69 -21 25 -134 88 -158 88 -24 0 -137 -63 -157
-88 -14 -17 -18 -179 -5 -198 13 -20 142 -94 163 -94 12 0 58 22 103 49 192
116 330 191 349 191 21 0 235 -120 262 -147 20 -19 22 -300 3 -325 -21 -27
-238 -148 -265 -148 -23 0 -216 104 -255 138 -14 11 -18 30 -18 77 l0 62 50
27 50 27 0 -54 c0 -43 5 -58 23 -74 31 -29 130 -83 152 -83 20 0 134 66 153
88 7 10 12 48 12 102 0 54 -5 92 -12 102 -20 24 -133 88 -156 88 -11 0 -113
-54 -227 -120 -114 -66 -214 -120 -223 -120 -22 0 -242 127 -264 152 -15 17
-18 41 -18 158 0 117 3 141 18 158 27 33 234 151 264 152 15 0 70 -26 130 -61z"/>
<path d="M14715 8656 c-80 -19 -157 -50 -230 -94 -72 -43 -231 -200 -263 -259
-34 -63 -20 -52 28 22 142 218 404 347 675 332 117 -6 209 -32 313 -88 40 -21
70 -34 67 -29 -12 20 -95 61 -181 91 -78 27 -105 32 -219 35 -88 2 -150 -1
-190 -10z"/>
<path d="M17376 8435 c-7 -61 -45 -246 -67 -321 -11 -37 -10 -47 19 -115 56
-134 67 -290 27 -372 -76 -159 -363 -326 -560 -327 -155 0 -415 134 -524 271
-65 81 -77 125 -64 228 7 51 26 126 45 178 l34 90 -18 54 c-22 65 -68 283 -69
330 0 33 -1 32 -18 -17 -24 -67 -49 -114 -61 -114 -15 0 -36 -50 -48 -115 -23
-121 -42 -249 -42 -284 0 -44 29 -272 41 -322 18 -73 139 -223 258 -320 154
-124 263 -162 476 -163 147 -1 208 12 330 68 78 36 147 89 250 191 79 78 150
213 165 311 5 38 17 96 25 129 19 78 19 150 0 211 -9 27 -20 84 -26 128 -11
90 -44 163 -89 198 -17 13 -32 33 -34 45 -3 11 -13 38 -24 59 l-20 39 -6 -60z"/>
<path d="M15425 8430 c27 -27 51 -50 54 -50 3 0 -17 23 -44 50 -27 28 -51 50
-54 50 -3 0 17 -22 44 -50z"/>
<path d="M15077 8373 l-18 -38 20 25 c18 22 28 50 18 50 -2 0 -11 -17 -20 -37z"/>
<path d="M15192 8379 c-56 -7 -82 -22 -82 -46 0 -11 7 -14 25 -11 19 4 25 1
25 -13 0 -17 27 -39 49 -39 9 0 25 32 26 55 1 6 5 20 9 33 4 13 6 25 4 26 -1
1 -27 -1 -56 -5z"/>
<path d="M15510 8325 c17 -24 44 -73 60 -107 17 -35 30 -56 30 -48 0 27 -98
200 -113 200 -4 0 6 -20 23 -45z"/>
<path d="M14550 8119 c0 -6 -7 -8 -17 -5 -16 6 -17 6 -2 -9 9 -9 23 -13 32 -9
21 8 22 34 2 34 -8 0 -15 -5 -15 -11z"/>
<path d="M14858 8123 c23 -4 23 -5 6 -24 -15 -16 -16 -24 -6 -39 9 -14 9 -20
-1 -23 -7 -2 2 -3 18 0 17 2 41 15 55 29 l25 25 -24 20 c-14 12 -37 18 -60 18
-24 -1 -29 -3 -13 -6z"/>
<path d="M12161 8034 c0 -11 3 -14 6 -6 3 7 2 16 -1 19 -3 4 -6 -2 -5 -13z"/>
<path d="M15632 8020 c0 -14 2 -19 5 -12 2 6 2 18 0 25 -3 6 -5 1 -5 -13z"/>
<path d="M14471 7991 c-24 -24 -40 -146 -22 -164 6 -6 11 -19 11 -28 0 -25 51
-79 75 -79 40 0 45 18 45 151 0 123 -1 127 -22 133 -41 10 -68 6 -87 -13z"/>
<path d="M16436 7983 c-3 -3 -6 -21 -6 -39 0 -40 32 -68 103 -89 105 -31 157
-14 105 35 -50 47 -185 109 -202 93z"/>
<path d="M17061 7957 c-67 -33 -131 -85 -131 -107 0 -21 111 -6 174 23 58 27
75 53 61 96 -9 28 -29 26 -104 -12z"/>
<path d="M15643 7910 c0 -41 2 -58 4 -37 2 20 2 54 0 75 -2 20 -4 3 -4 -38z"/>
<path d="M12153 7900 c0 -36 2 -50 4 -32 2 17 2 47 0 65 -2 17 -4 3 -4 -33z"/>
<path d="M13763 7905 c0 -27 2 -38 4 -22 2 15 2 37 0 50 -2 12 -4 0 -4 -28z"/>
<path d="M6392 7920 c0 -14 2 -19 5 -12 2 6 2 18 0 25 -3 6 -5 1 -5 -13z"/>
<path d="M8003 7880 c0 -36 2 -50 4 -32 2 17 2 47 0 65 -2 17 -4 3 -4 -33z"/>
<path d="M6071 7764 c0 -11 3 -14 6 -6 3 7 2 16 -1 19 -3 4 -6 -2 -5 -13z"/>
<path d="M16732 7738 c-29 -29 -8 -89 38 -113 20 -11 30 -23 30 -39 0 -38 -23
-49 -85 -41 -61 7 -62 4 -24 -59 l18 -29 3 32 3 32 97 2 97 2 3 -35 4 -35 11
27 c7 14 17 29 22 33 6 3 11 13 11 22 0 12 -9 14 -50 8 -34 -5 -55 -3 -65 5
-24 20 -18 54 15 78 25 19 30 29 30 66 0 31 -5 46 -16 50 -28 11 -130 6 -142
-6z"/>
<path d="M6061 7724 c0 -11 3 -14 6 -6 3 7 2 16 -1 19 -3 4 -6 -2 -5 -13z"/>
<path d="M14131 7724 c0 -11 3 -14 6 -6 3 7 2 16 -1 19 -3 4 -6 -2 -5 -13z"/>
<path d="M12575 7630 c-51 -51 -76 -83 -70 -89 7 -7 126 -8 325 -4 282 6 310
8 275 20 -22 7 -44 18 -49 23 -6 6 -16 10 -24 10 -8 0 -27 9 -43 21 -16 11
-45 25 -64 30 -20 6 -49 23 -66 40 -28 28 -34 29 -117 29 l-87 0 -80 -80z"/>
<path d="M14141 7690 c0 -8 4 -22 9 -30 12 -18 12 -2 0 25 -6 13 -9 15 -9 5z"/>
<path d="M14200 7541 c0 -6 4 -13 10 -16 6 -3 7 1 4 9 -7 18 -14 21 -14 7z"/>
<path d="M16750 7499 c0 -6 7 -8 16 -5 9 4 22 2 28 -3 13 -11 66 -3 66 10 0 5
-25 9 -55 9 -34 0 -55 -4 -55 -11z"/>
<path d="M15410 7362 c-52 -53 -79 -85 -60 -72 44 31 108 95 138 138 13 17 22
31 20 31 -2 -1 -46 -45 -98 -97z"/>
<path d="M14326 7367 c22 -23 50 -51 64 -61 14 -11 -2 9 -35 43 -68 70 -86 82
-29 18z"/>
<path d="M15210 7215 c-63 -37 -187 -67 -305 -75 l-120 -9 125 4 c96 2 140 8
189 25 65 22 164 69 146 69 -5 0 -21 -6 -35 -14z"/>
<path d="M14587 7189 c7 -7 15 -10 18 -7 3 3 -2 9 -12 12 -14 6 -15 5 -6 -5z"/>
<path d="M14670 7160 c30 -10 69 -19 85 -19 21 1 13 5 -25 13 -106 25 -115 25
-60 6z"/>
<path d="M9995 6450 c-118 -10 -161 -22 -275 -78 -81 -40 -110 -61 -196 -147
-91 -90 -106 -111 -153 -205 -30 -62 -57 -135 -66 -178 -22 -107 -20 -281 5
-376 21 -84 84 -208 135 -265 17 -20 50 -62 73 -94 46 -61 75 -83 208 -153
127 -67 215 -88 359 -88 142 0 221 20 355 90 118 61 167 100 237 186 131 161
190 302 200 473 7 120 -7 227 -43 320 -25 67 -82 164 -120 205 -13 14 -37 44
-53 67 -37 52 -133 120 -248 177 -68 34 -107 47 -173 55 -130 18 -148 18 -245
11z m210 -382 c46 -12 111 -43 120 -58 3 -5 -9 -17 -28 -26 -32 -15 -38 -15
-83 0 -81 26 -134 30 -205 12 -125 -32 -222 -128 -254 -251 -15 -61 -20 -125
-9 -125 4 0 193 95 419 210 227 116 416 210 420 210 3 0 5 -19 3 -42 l-3 -43
-495 -252 -495 -252 -3 42 c-2 25 1 43 8 45 6 2 23 14 36 26 22 18 25 31 29
99 9 173 91 305 235 375 101 49 193 58 305 30z m375 -286 c-6 -2 -23 -14 -38
-27 -24 -21 -27 -31 -33 -119 -5 -80 -11 -106 -38 -161 -105 -212 -351 -296
-571 -194 l-65 30 38 23 38 24 52 -21 c80 -31 185 -29 263 7 68 31 141 99 173
161 34 67 54 200 29 193 -7 -2 -196 -96 -420 -210 -224 -115 -410 -208 -413
-208 -3 0 -5 19 -5 43 l0 42 498 252 497 252 3 -42 c2 -25 -1 -43 -8 -45z"/>
<path d="M15805 6453 c-171 -9 -316 -61 -444 -158 -143 -109 -266 -295 -300
-454 -23 -106 -1 -366 38 -472 22 -57 78 -143 128 -196 164 -172 179 -186 248
-218 232 -107 405 -120 616 -47 144 50 186 77 293 186 119 122 178 209 224
336 33 91 35 101 36 235 1 127 -2 148 -26 220 -44 135 -135 268 -262 383 -137
126 -346 196 -551 185z m233 -510 l25 -93 59 0 59 0 -39 -72 -40 -73 54 -200
c30 -110 54 -206 54 -212 0 -9 -18 -13 -55 -13 l-54 0 -14 48 c-8 26 -25 89
-38 140 -13 50 -26 92 -29 92 -3 0 -34 -51 -69 -113 -101 -176 -93 -167 -162
-167 -32 0 -59 3 -59 8 0 4 56 104 125 222 69 118 123 222 121 230 -26 96 -38
132 -41 129 -2 -2 -76 -130 -165 -284 -89 -154 -167 -286 -172 -292 -6 -8 -34
-13 -70 -13 -50 0 -59 3 -54 15 3 9 101 180 217 381 l211 365 56 -3 55 -3 25
-92z"/>
<path d="M8110 6440 c-41 -4 -100 -11 -130 -15 l-55 -8 88 -13 c87 -13 88 -13
160 16 78 32 74 33 -63 20z"/>
<path d="M13734 6425 c-82 -18 -182 -69 -293 -150 -33 -23 -130 -129 -147
-160 -80 -142 -124 -228 -133 -261 -17 -60 -14 -231 5 -299 9 -33 26 -103 38
-156 25 -109 53 -162 127 -243 172 -188 370 -280 604 -280 128 0 232 27 345
90 119 65 132 76 209 167 70 85 121 159 162 237 13 25 27 46 31 48 4 2 7 113
8 247 1 239 0 244 -24 297 -14 29 -25 49 -26 43 0 -5 -9 4 -19 20 -10 17 -44
59 -76 95 -31 36 -63 77 -71 92 -8 15 -35 43 -61 63 -71 54 -262 144 -329 155
-83 14 -277 11 -350 -5z m350 -211 c9 -3 16 -13 16 -21 0 -8 -29 -114 -65
-235 -36 -122 -64 -223 -62 -224 2 -2 26 4 55 13 28 9 54 14 58 11 8 -9 -18
-89 -30 -94 -6 -2 -36 -10 -66 -19 l-55 -15 -34 -118 c-19 -64 -36 -125 -39
-134 -4 -17 11 -18 214 -18 121 0 226 -4 234 -10 12 -8 12 -19 -5 -86 -10 -42
-25 -83 -33 -90 -19 -20 -702 -21 -702 -1 0 6 25 94 54 195 30 100 50 182 46
182 -4 0 -27 -7 -50 -15 -68 -24 -71 -22 -53 30 14 43 18 46 75 63 33 11 64
25 68 33 4 8 42 130 84 273 42 142 81 265 87 272 12 15 171 20 203 8z"/>
<path d="M17581 6424 c-72 -15 -193 -69 -246 -110 -57 -43 -193 -181 -209
-211 -8 -15 -26 -39 -40 -52 -16 -15 -29 -43 -37 -80 -7 -31 -20 -68 -30 -82
-10 -14 -21 -38 -25 -53 -4 -17 -9 -23 -14 -16 -20 32 -37 -187 -21 -260 8
-38 9 -31 5 45 -2 50 0 115 5 145 7 47 9 35 10 -84 1 -123 3 -143 24 -185 13
-25 32 -70 41 -98 9 -28 24 -57 32 -64 9 -7 25 -31 36 -53 11 -23 35 -58 52
-78 137 -164 125 -154 251 -216 151 -76 200 -86 397 -80 l153 4 85 43 c47 24
92 49 100 55 8 7 36 25 62 40 26 14 60 43 75 64 15 20 42 55 60 76 18 22 33
44 33 49 0 5 8 21 19 35 42 61 93 168 106 225 9 39 15 116 15 209 0 126 -3
156 -21 205 -12 32 -25 63 -29 68 -4 6 -11 25 -15 43 -6 31 -33 68 -127 176
-73 83 -94 99 -226 169 -101 55 -140 71 -192 78 -95 12 -256 9 -329 -7z m278
-388 c49 -85 71 -134 71 -157 0 -31 -106 -233 -237 -452 -49 -81 -65 -87 -231
-87 -142 0 -162 5 -162 41 0 13 357 654 423 759 7 12 23 20 39 20 24 0 34 -14
97 -124z m280 -490 c127 -215 132 -206 -105 -206 -231 0 -227 -9 -99 210 37
63 72 118 79 122 31 21 47 5 125 -126z"/>
<path d="M8173 6401 c-71 -25 -87 -28 -125 -19 -97 22 -229 -8 -315 -74 -71
-54 -125 -154 -153 -281 -6 -26 -21 -65 -33 -85 -28 -45 -52 -105 -61 -152 -3
-19 -24 -61 -45 -93 -50 -73 -66 -119 -52 -146 6 -11 11 -30 12 -43 0 -15 7
-6 18 28 24 67 48 112 82 155 16 21 33 60 40 90 6 30 26 81 43 114 18 33 45
103 60 155 15 52 38 114 52 137 66 114 221 169 368 132 39 -10 49 -8 93 14 61
31 143 47 247 47 l81 1 -55 24 c-77 34 -152 33 -257 -4z"/>
<path d="M8320 6360 c-79 -8 -141 -27 -184 -56 -25 -16 -30 -16 -88 1 -43 12
-77 15 -114 10 -71 -9 -166 -57 -202 -103 -32 -41 -66 -123 -82 -194 -5 -26
-28 -81 -50 -123 -22 -42 -40 -88 -40 -103 0 -30 -24 -81 -75 -162 -58 -90
-66 -143 -40 -245 23 -88 57 -154 106 -206 24 -25 67 -71 95 -102 72 -79 117
-91 339 -92 94 0 188 3 210 7 36 7 38 6 15 -5 -17 -8 -87 -12 -227 -12 -122 0
-195 -3 -186 -9 74 -41 141 -57 243 -57 63 0 128 6 163 15 32 9 88 15 125 14
l67 -1 -85 -8 c-47 -4 -123 -17 -170 -28 l-85 -19 103 -1 c228 -2 425 78 559
229 37 41 82 140 97 213 12 55 22 76 54 111 49 53 58 69 65 126 4 25 9 56 12
70 4 17 -1 12 -16 -15 -30 -54 -74 -112 -121 -157 -64 -62 -55 -43 15 31 93
99 135 221 112 326 -12 53 -15 52 -33 -10 -49 -179 -71 -222 -156 -305 -25
-24 -46 -50 -46 -56 0 -7 -4 -16 -10 -19 -26 -16 10 37 65 96 71 76 95 122
123 239 36 148 36 141 2 216 -44 95 -88 159 -157 225 -70 68 -164 137 -201
149 -45 14 -122 18 -202 10z m262 -82 c41 -19 80 -51 144 -118 49 -50 95 -103
102 -116 30 -58 26 -137 -13 -269 -20 -66 -11 -3 10 75 20 71 19 126 -3 172
-24 54 -177 205 -237 235 -101 52 -284 48 -404 -7 -72 -34 -82 -34 -169 -9
-57 16 -135 -1 -192 -42 -47 -34 -80 -98 -99 -191 -7 -31 -30 -90 -51 -131
-26 -48 -41 -92 -44 -125 -4 -41 -13 -60 -50 -106 -26 -32 -52 -79 -62 -111
-16 -49 -16 -63 -5 -116 15 -74 70 -197 112 -250 33 -42 95 -83 151 -100 18
-6 107 -14 198 -19 l165 -8 -165 3 c-187 4 -244 16 -312 68 -82 62 -168 247
-168 360 0 55 5 71 36 123 19 32 46 70 60 85 17 18 24 36 24 67 0 28 12 64 39
117 22 42 49 113 61 158 11 45 33 102 48 127 57 92 183 133 291 95 l50 -19 78
37 c91 42 113 46 248 43 84 -2 110 -7 157 -28z m-29 -66 c30 -13 74 -50 124
-102 108 -114 104 -121 -6 -12 -115 113 -145 125 -294 120 -94 -3 -108 -6
-179 -41 -82 -40 -118 -45 -158 -22 -37 21 -119 19 -158 -5 -45 -27 -67 -68
-91 -167 -12 -50 -34 -106 -53 -137 -26 -41 -33 -61 -33 -107 0 -50 -4 -61
-41 -105 -106 -127 -112 -179 -38 -334 41 -87 74 -125 129 -151 22 -10 34 -19
27 -19 -26 0 -92 41 -116 72 -43 57 -97 183 -103 240 -6 64 10 104 80 189 39
48 45 61 49 114 3 43 12 72 30 100 15 22 33 63 41 90 8 28 23 77 32 110 21 73
64 118 126 135 45 13 74 8 145 -21 29 -11 38 -9 110 25 44 21 99 42 124 46 74
14 201 5 253 -18z m-21 -68 c20 -11 68 -53 107 -95 77 -84 85 -107 57 -174 -8
-19 -18 -54 -21 -79 -8 -52 -34 -99 -68 -121 -22 -14 -29 -13 -119 29 l-96 45
-4 123 c-3 91 -9 132 -22 156 -18 36 -69 72 -101 72 -11 0 -26 4 -34 9 -11 7
-6 13 19 26 73 38 218 42 282 9z m-522 -44 c45 -23 56 -24 160 -15 106 10 148
-6 178 -65 18 -37 22 -60 22 -146 0 -57 4 -113 9 -126 6 -17 27 -29 80 -47 76
-26 90 -36 73 -53 -8 -8 -27 -5 -67 10 -80 31 -110 29 -147 -10 -17 -18 -43
-47 -59 -64 -25 -26 -29 -38 -29 -91 0 -42 -5 -64 -15 -73 -13 -11 -15 -7 -15
25 l0 37 -42 -6 c-63 -8 -183 -10 -196 -2 -6 4 -27 7 -46 8 -19 1 -37 7 -40
15 -3 7 -16 13 -29 13 -42 0 -167 32 -167 42 0 6 17 28 39 49 66 66 64 63 50
118 -12 48 -11 50 19 97 18 26 38 70 46 98 8 28 22 76 30 107 20 69 41 89 99
98 4 0 26 -8 47 -19z m766 -448 c-9 -17 -20 -33 -25 -36 -5 -4 0 12 12 33 25
46 36 48 13 3z m-352 -1 c4 -5 -7 -38 -24 -73 -16 -34 -30 -73 -30 -85 0 -22
-7 -25 -97 -46 -22 -5 -23 -2 -23 45 0 44 5 56 35 89 19 22 35 43 35 48 0 22
92 42 104 22z m85 -37 c2 -2 -6 -15 -18 -30 -18 -23 -21 -40 -21 -121 0 -107
-11 -139 -69 -204 l-36 -41 -100 -8 c-55 -4 -115 -13 -133 -20 -40 -15 -312
-9 -354 8 -35 15 -65 47 -95 105 -26 52 -24 69 7 49 11 -7 28 -12 39 -12 10 0
22 -7 25 -16 4 -10 13 -13 25 -9 10 3 24 -1 31 -10 18 -21 97 -21 102 1 3 14
7 13 30 -5 30 -24 46 -26 71 -7 10 8 27 11 39 8 13 -3 24 1 29 11 5 9 17 13
29 10 12 -3 22 1 26 11 4 11 13 14 30 10 15 -4 24 -2 24 5 0 6 13 25 28 41 22
22 45 33 92 42 67 14 76 22 85 79 3 19 19 57 35 83 28 43 32 46 53 35 12 -6
24 -13 26 -15z m231 -17 c0 -2 -12 -14 -27 -28 l-28 -24 24 28 c23 25 31 32
31 24z m-60 -52 c0 -2 -13 -11 -30 -20 -38 -19 -40 -11 -2 9 31 17 32 18 32
11z m-992 -54 c-7 -11 -18 -21 -25 -21 -7 0 -13 -12 -14 -27 l0 -28 -12 24
c-9 19 -9 25 1 29 6 2 12 9 12 15 0 6 8 19 17 29 22 24 39 8 21 -21z m44 -11
c-17 -31 -27 -36 -36 -22 -7 12 23 52 39 52 11 0 11 -6 -3 -30z m68 12 c0 -18
-33 -52 -51 -52 -23 0 -24 8 -3 38 14 21 54 31 54 14z m65 -23 c10 -29 -13
-52 -44 -44 -36 9 -36 10 -12 44 23 32 46 32 56 0z m752 9 c-3 -8 -6 -5 -6 6
-1 11 2 17 5 13 3 -3 4 -12 1 -19z m-721 -93 l-1 -86 -34 3 c-58 5 -60 26 -10
101 24 37 44 67 45 67 0 0 0 -38 0 -85z m74 48 c0 -16 -9 -43 -21 -62 -25 -41
-39 -29 -39 35 0 47 5 54 37 54 18 0 23 -5 23 -27z m63 21 c10 -10 -14 -64
-29 -64 -18 0 -19 56 -1 63 17 8 23 8 30 1z m95 -16 c-4 -27 -28 -36 -28 -10
0 20 8 32 22 32 5 0 8 -10 6 -22z m52 2 c0 -11 -4 -20 -10 -20 -5 0 -10 9 -10
20 0 11 5 20 10 20 6 0 10 -9 10 -20z m-98 4 c12 -12 -5 -44 -24 -44 -14 0
-18 5 -14 16 3 9 6 20 6 25 0 10 23 12 32 3z m-402 -34 c0 -16 -4 -30 -10 -30
-5 0 -10 14 -10 30 0 17 5 30 10 30 6 0 10 -13 10 -30z m52 -15 c3 -28 1 -35
-13 -35 -18 0 -29 19 -29 51 0 12 7 19 19 19 14 0 20 -9 23 -35z m64 15 c30 0
31 -19 3 -54 -27 -34 -35 -33 -48 5 -16 45 -14 62 5 55 9 -3 27 -6 40 -6z
m968 -42 c-4 -24 -10 -50 -15 -58 -8 -14 -5 17 7 78 8 40 14 23 8 -20z m-576
15 c-5 -25 -28 -28 -28 -4 0 12 6 21 16 21 9 0 14 -7 12 -17z m-48 -2 c0 -21
-13 -41 -26 -41 -8 0 -14 10 -14 25 0 18 5 25 20 25 11 0 20 -4 20 -9z m-62
-33 c-2 -21 -8 -33 -18 -33 -10 0 -16 12 -18 33 -3 27 0 32 18 32 18 0 21 -5
18 -32z m-60 -1 c5 -23 -15 -47 -39 -47 -25 0 -31 14 -19 45 7 19 16 26 32 23
13 -2 24 -11 26 -21z m715 -92 c-3 -9 -8 -14 -10 -11 -3 3 -2 9 2 15 9 16 15
13 8 -4z m-92 -158 c-10 -9 -11 -8 -5 6 3 10 9 15 12 12 3 -3 0 -11 -7 -18z
m-474 -43 c-3 -3 -12 -4 -19 -1 -8 3 -5 6 6 6 11 1 17 -2 13 -5z m393 -44
c-31 -25 -129 -74 -135 -68 -4 4 139 84 155 87 3 0 -6 -8 -20 -19z m-262 -7
c-10 -2 -28 -2 -40 0 -13 2 -5 4 17 4 22 1 32 -1 23 -4z"/>
<path d="M7944 6052 c-6 -4 -29 -45 -50 -91 l-38 -84 24 -19 c18 -15 33 -18
60 -13 59 10 66 14 80 43 19 41 25 139 10 157 -13 16 -67 20 -86 7z m-3 -91
c-17 -33 -31 -67 -31 -76 0 -8 -4 -15 -10 -15 -14 0 -12 32 3 55 7 11 19 36
27 55 16 43 33 66 38 52 2 -6 -11 -38 -27 -71z"/>
<path d="M8152 6034 c-27 -19 -20 -39 9 -24 26 14 25 -3 -3 -42 -12 -17 -23
-52 -26 -79 -7 -71 -24 -60 -21 13 2 37 -2 63 -8 65 -26 9 -31 -105 -5 -137
19 -23 83 -37 126 -26 29 7 86 96 86 134 0 31 -25 77 -52 96 -29 20 -77 20
-106 0z"/>
<path d="M7843 5778 c-6 -7 -18 -46 -29 -86 -18 -72 -18 -73 2 -93 29 -29 66
-17 126 41 40 39 49 53 46 76 -6 52 -116 99 -145 62z m33 -26 c-9 -29 -36
-132 -36 -140 0 -4 -4 -1 -9 7 -6 9 -4 29 5 54 8 22 14 49 14 62 0 23 8 35 22
35 5 0 7 -8 4 -18z"/>
<path d="M7597 6209 c-44 -36 -62 -67 -78 -135 -6 -27 -26 -78 -44 -114 -18
-36 -40 -88 -48 -116 -8 -28 -24 -69 -36 -92 -12 -23 -21 -60 -21 -84 l0 -43
31 45 c43 65 64 108 78 162 6 26 25 70 41 98 17 28 37 81 46 118 10 37 29 95
45 130 15 34 27 62 26 62 -2 0 -19 -14 -40 -31z"/>
<path d="M11290 6049 c-7 -11 -10 -23 -7 -25 2 -2 9 7 15 21 14 30 7 33 -8 4z"/>
<path d="M7478 6050 c-3 -8 -13 -32 -22 -52 -9 -21 -14 -38 -12 -38 11 0 47
72 44 87 -3 15 -5 15 -10 3z"/>
<path d="M7386 5814 c-4 -9 -4 -19 -1 -22 2 -3 7 3 11 12 4 9 4 19 1 22 -2 3
-7 -3 -11 -12z"/>
<path d="M7032 5790 c0 -14 2 -19 5 -12 2 6 2 18 0 25 -3 6 -5 1 -5 -13z"/>
<path d="M7042 5670 c-1 -47 -4 -103 -7 -125 l-5 -40 11 40 c5 22 8 78 6 125
l-3 85 -2 -85z"/>
<path d="M5433 5665 c0 -44 2 -61 4 -37 2 23 2 59 0 80 -2 20 -4 1 -4 -43z"/>
<path d="M12803 5645 c0 -44 2 -61 4 -37 2 23 2 59 0 80 -2 20 -4 1 -4 -43z"/>
<path d="M8878 5425 c-25 -24 -39 -48 -43 -73 -4 -20 -15 -66 -25 -102 -19
-64 -19 -65 0 -40 33 42 112 209 108 230 -3 18 -7 16 -40 -15z"/>
<path d="M17830 2631 c-16 -30 -13 -72 4 -65 8 3 12 12 10 19 -3 7 2 25 11 39
15 23 16 26 2 26 -9 0 -21 -9 -27 -19z"/>
<path d="M12230 2624 c0 -14 3 -14 15 -4 8 7 15 14 15 16 0 2 -7 4 -15 4 -8 0
-15 -7 -15 -16z"/>
<path d="M6322 2524 c-1 -56 -5 -130 -8 -165 -5 -48 -4 -61 5 -53 8 7 11 57 8
165 -2 113 -3 127 -5 53z"/>
<path d="M13760 2534 c0 -54 4 -83 10 -79 6 3 10 42 10 86 0 46 -4 79 -10 79
-6 0 -10 -35 -10 -86z"/>
<path d="M11290 2586 c0 -22 3 -27 11 -19 8 8 8 16 0 30 -9 16 -10 14 -11 -11z"/>
<path d="M16971 2584 c0 -11 3 -14 6 -6 3 7 2 16 -1 19 -3 4 -6 -2 -5 -13z"/>
<path d="M11540 2554 c0 -22 2 -25 15 -14 12 10 13 16 4 26 -16 20 -19 18 -19
-12z"/>
<path d="M14563 2525 c0 -33 2 -45 4 -27 2 18 2 45 0 60 -2 15 -4 0 -4 -33z"/>
<path d="M14630 2553 c0 -21 2 -24 15 -13 8 7 15 16 15 20 0 4 -7 10 -15 14
-11 4 -15 -2 -15 -21z"/>
<path d="M8610 2554 c0 -8 5 -12 10 -9 6 4 8 11 5 16 -9 14 -15 11 -15 -7z"/>
<path d="M9880 2550 c0 -17 2 -19 14 -8 14 13 12 28 -5 28 -5 0 -9 -9 -9 -20z"/>
<path d="M11484 2440 c0 -74 1 -105 3 -67 2 37 2 97 0 135 -2 37 -3 6 -3 -68z"/>
<path d="M6944 2545 c-12 -30 2 -35 25 -11 l24 26 -22 0 c-12 0 -24 -7 -27
-15z"/>
<path d="M7850 2538 c0 -17 3 -19 9 -9 5 7 15 17 22 22 10 6 8 9 -8 9 -17 0
-23 -6 -23 -22z"/>
<path d="M9140 2533 c0 -14 1 -24 3 -22 1 2 11 14 21 27 19 22 19 22 -2 22
-17 0 -22 -6 -22 -27z"/>
<path d="M12825 2549 c-11 -17 1 -21 15 -4 8 9 8 15 2 15 -6 0 -14 -5 -17 -11z"/>
<path d="M16750 2549 c0 -5 5 -7 10 -4 6 3 10 8 10 11 0 2 -4 4 -10 4 -5 0
-10 -5 -10 -11z"/>
<path d="M10521 2513 c-1 -12 4 -25 9 -28 12 -7 12 2 0 30 -8 19 -9 19 -9 -2z"/>
<path d="M10879 2473 c-6 -32 -19 -71 -28 -88 -16 -29 -17 -85 -2 -85 4 0 18
46 31 102 12 56 25 108 27 115 3 7 0 13 -5 13 -6 0 -16 -26 -23 -57z"/>
<path d="M8890 2499 c0 -18 2 -19 15 -9 8 7 15 16 15 21 0 5 -7 9 -15 9 -9 0
-15 -9 -15 -21z"/>
<path d="M11044 2390 c0 -74 1 -105 3 -67 2 37 2 97 0 135 -2 37 -3 6 -3 -68z"/>
<path d="M11290 2500 c0 -11 4 -20 9 -20 5 0 11 9 14 20 3 13 0 20 -9 20 -8 0
-14 -9 -14 -20z"/>
<path d="M14670 2510 c-9 -6 -10 -10 -3 -10 6 0 15 5 18 10 8 12 4 12 -15 0z"/>
<path d="M16775 2510 c-3 -5 -1 -10 4 -10 6 0 11 5 11 10 0 6 -2 10 -4 10 -3
0 -8 -4 -11 -10z"/>
<path d="M16966 2408 c4 -62 8 -115 10 -117 2 -2 4 48 4 112 0 73 -4 117 -10
117 -7 0 -8 -39 -4 -112z"/>
<path d="M17821 2483 c0 -31 2 -34 9 -18 12 28 12 55 0 55 -5 0 -10 -17 -9
-37z"/>
<path d="M9892 2485 c-7 -15 -11 -69 -11 -128 1 -91 2 -96 9 -48 5 29 11 83
14 118 3 36 8 69 11 74 4 5 2 9 -3 9 -5 0 -14 -11 -20 -25z"/>
<path d="M10062 2485 c0 -16 2 -22 5 -12 2 9 2 23 0 30 -3 6 -5 -1 -5 -18z"/>
<path d="M10732 2460 c-27 -118 -27 -109 2 -75 26 30 30 58 17 105 -6 21 -9
17 -19 -30z"/>
<path d="M14040 2501 c0 -6 5 -13 10 -16 6 -3 10 1 10 9 0 9 -4 16 -10 16 -5
0 -10 -4 -10 -9z"/>
<path d="M15497 2490 c-3 -11 -1 -23 4 -26 5 -3 9 6 9 20 0 31 -6 34 -13 6z"/>
<path d="M15926 2443 c-4 -38 -2 -81 3 -98 7 -24 9 -9 10 68 1 53 -1 97 -3 97
-2 0 -7 -30 -10 -67z"/>
<path d="M7321 2482 c-14 -26 -7 -42 10 -25 6 6 9 19 7 29 -3 17 -5 17 -17 -4z"/>
<path d="M12165 2438 l-47 -63 42 45 c40 44 65 80 56 80 -3 0 -26 -28 -51 -62z"/>
<path d="M16508 2477 c-3 -19 -2 -25 4 -19 6 6 8 18 6 28 -3 14 -5 12 -10 -9z"/>
<path d="M6959 2468 c-17 -31 -26 -193 -10 -184 6 4 11 28 12 54 0 26 4 71 8
100 4 28 6 52 5 52 -2 0 -9 -10 -15 -22z"/>
<path d="M7861 2472 c-13 -25 -15 -129 -2 -137 8 -4 21 141 14 153 -1 2 -6 -5
-12 -16z"/>
<path d="M10658 2456 c-36 -44 -42 -74 -28 -127 l12 -44 24 94 c14 52 23 98
22 103 -2 4 -15 -7 -30 -26z"/>
<path d="M14783 2385 c0 -109 0 -109 6 -30 4 44 3 94 0 110 -4 17 -7 -19 -6
-80z"/>
<path d="M8613 2435 c0 -27 2 -38 4 -22 2 15 2 37 0 50 -2 12 -4 0 -4 -28z"/>
<path d="M9299 2458 c-2 -13 -1 -59 2 -103 l5 -80 2 103 c2 98 -2 127 -9 80z"/>
<path d="M16245 2401 c0 -70 2 -77 17 -73 10 2 25 -1 33 -8 13 -10 15 -8 15
13 0 16 -7 26 -19 30 -13 3 -21 18 -26 48 -12 75 -20 71 -20 -10z"/>
<path d="M8030 2420 c0 -30 -3 -66 -6 -80 -6 -23 -6 -24 11 -8 20 19 25 112 6
131 -8 8 -11 -3 -11 -43z"/>
<path d="M9506 2454 c-8 -20 -3 -27 18 -22 12 2 13 6 2 21 -13 16 -14 16 -20
1z"/>
<path d="M12446 2445 c-4 -12 3 -15 42 -14 34 2 39 3 17 6 -16 3 -35 9 -41 14
-8 6 -14 4 -18 -6z"/>
<path d="M12606 2445 c-3 -9 0 -15 9 -15 16 0 20 16 6 24 -5 3 -11 -1 -15 -9z"/>
<path d="M7160 2405 c0 -28 4 -44 10 -40 6 3 10 21 10 40 0 19 -4 37 -10 40
-6 4 -10 -12 -10 -40z"/>
<path d="M8430 2424 c0 -14 4 -23 10 -19 6 3 10 15 10 26 0 10 -4 19 -10 19
-5 0 -10 -12 -10 -26z"/>
<path d="M11703 2395 c0 -33 2 -45 4 -27 2 18 2 45 0 60 -2 15 -4 0 -4 -33z"/>
<path d="M15340 2415 c0 -22 4 -34 10 -30 6 3 10 17 10 30 0 13 -4 27 -10 30
-6 4 -10 -8 -10 -30z"/>
<path d="M13300 2426 c0 -8 5 -18 10 -21 6 -3 10 1 10 9 0 8 -4 18 -10 21 -5
3 -10 -1 -10 -9z"/>
<path d="M16513 2370 c0 -25 2 -35 4 -22 2 12 2 32 0 45 -2 12 -4 2 -4 -23z"/>
<path d="M9500 2373 c0 -11 7 -28 15 -39 14 -18 15 -17 13 15 -3 36 -28 57
-28 24z"/>
<path d="M10916 2356 c-4 -21 -5 -40 -2 -43 7 -8 18 42 14 64 -3 11 -7 3 -12
-21z"/>
<path d="M9083 2345 c0 -22 2 -30 4 -17 2 12 2 30 0 40 -3 9 -5 -1 -4 -23z"/>
<path d="M13922 2368 c-16 -16 -15 -63 2 -77 11 -10 14 -3 13 39 0 27 -1 50
-2 50 -1 0 -6 -5 -13 -12z"/>
<path d="M15136 2364 c-17 -16 -21 -50 -8 -58 5 -3 13 13 19 35 12 44 11 45
-11 23z"/>
<path d="M8226 2348 c-5 -16 -5 -36 0 -45 7 -16 8 -15 11 5 3 12 3 32 0 45 -3
21 -4 20 -11 -5z"/>
<path d="M8890 2339 c0 -20 7 -42 15 -49 27 -22 30 -5 8 40 l-22 45 -1 -36z"/>
<path d="M7310 2342 c0 -5 7 -16 16 -23 14 -12 16 -11 13 5 -4 20 -29 35 -29
18z"/>
<path d="M10332 2325 c0 -16 2 -22 5 -12 2 9 2 23 0 30 -3 6 -5 -1 -5 -18z"/>
<path d="M13226 2333 c-6 -14 -5 -15 5 -6 7 7 10 15 7 18 -3 3 -9 -2 -12 -12z"/>
<path d="M13762 2320 c0 -19 2 -27 5 -17 2 9 2 25 0 35 -3 9 -5 1 -5 -18z"/>
<path d="M11290 2322 c0 -19 18 -42 32 -42 5 0 2 14 -7 30 -18 34 -25 38 -25
12z"/>
<path d="M12055 2300 c-10 -11 -13 -20 -7 -20 6 0 16 9 22 20 6 11 9 20 7 20
-2 0 -12 -9 -22 -20z"/>
<path d="M15340 2306 c0 -8 5 -18 10 -21 6 -3 10 1 10 9 0 8 -4 18 -10 21 -5
3 -10 -1 -10 -9z"/>
<path d="M16139 2299 c-23 -19 -23 -20 -2 -10 12 6 25 16 28 21 10 16 -1 12
-26 -11z"/>
<path d="M8432 2299 c2 -7 10 -15 17 -17 8 -3 12 1 9 9 -2 7 -10 15 -17 17 -8
3 -12 -1 -9 -9z"/>
<path d="M6702 2270 c-10 -17 -10 -20 3 -20 8 0 15 9 15 20 0 11 -1 20 -3 20
-1 0 -8 -9 -15 -20z"/>
<path d="M7851 2219 c1 -53 2 -58 9 -32 4 18 13 39 19 46 8 11 6 18 -9 32 -20
18 -20 17 -19 -46z"/>
<path d="M15926 2255 c-4 -14 -2 -33 3 -43 8 -13 10 -8 11 26 0 48 -5 54 -14
17z"/>
<path d="M15990 2261 c0 -11 4 -21 9 -21 18 0 21 18 6 30 -13 10 -15 9 -15 -9z"/>
<path d="M16510 2265 c-10 -13 -9 -15 8 -15 15 0 20 5 16 15 -4 8 -7 15 -9 15
-1 0 -8 -7 -15 -15z"/>
<path d="M8365 2260 c-3 -5 1 -10 9 -10 9 0 16 5 16 10 0 6 -4 10 -9 10 -6 0
-13 -4 -16 -10z"/>
<path d="M15280 2260 c0 -5 5 -10 11 -10 5 0 7 5 4 10 -3 6 -8 10 -11 10 -2 0
-4 -4 -4 -10z"/>
<path d="M15931 2174 c0 -11 3 -14 6 -6 3 7 2 16 -1 19 -3 4 -6 -2 -5 -13z"/>
<path d="M7910 1702 l0 -60 24 21 c16 14 21 26 15 32 -5 5 -9 17 -9 26 0 9 -7
22 -15 29 -13 11 -15 5 -15 -48z"/>
<path d="M11361 1583 c1 -126 4 -163 9 -128 11 69 10 305 -1 305 -5 0 -8 -79
-8 -177z"/>
<path d="M7590 1714 c0 -21 4 -33 10 -29 6 3 10 19 10 36 0 16 -4 29 -10 29
-5 0 -10 -16 -10 -36z"/>
<path d="M15242 1720 c0 -19 2 -27 5 -17 2 9 2 25 0 35 -3 9 -5 1 -5 -18z"/>
<path d="M14122 1715 c0 -16 2 -22 5 -12 2 9 2 23 0 30 -3 6 -5 -1 -5 -18z"/>
<path d="M7771 1664 c0 -11 3 -14 6 -6 3 7 2 16 -1 19 -3 4 -6 -2 -5 -13z"/>
<path d="M10160 1658 c0 -20 1 -21 20 -3 11 10 20 20 20 22 0 1 -9 3 -20 3
-14 0 -20 -7 -20 -22z"/>
<path d="M11285 1660 c10 -11 20 -20 22 -20 1 0 3 9 3 20 0 14 -7 20 -22 20
-20 0 -21 -1 -3 -20z"/>
<path d="M12440 1669 c0 -5 5 -7 10 -4 6 3 10 8 10 11 0 2 -4 4 -10 4 -5 0
-10 -5 -10 -11z"/>
<path d="M13170 1664 c0 -8 5 -12 10 -9 6 3 10 10 10 16 0 5 -4 9 -10 9 -5 0
-10 -7 -10 -16z"/>
<path d="M13778 1673 c-10 -2 -18 -12 -18 -20 0 -14 3 -14 20 2 17 15 26 28
18 24 -2 -1 -11 -3 -20 -6z"/>
<path d="M16260 1621 l0 -64 25 23 c14 13 21 26 16 30 -6 3 -17 21 -25 40
l-15 35 -1 -64z"/>
<path d="M8795 1649 c-11 -17 1 -21 15 -4 8 9 8 15 2 15 -6 0 -14 -5 -17 -11z"/>
<path d="M11520 1553 c0 -112 12 -162 24 -103 8 41 8 138 0 179 -13 63 -24 28
-24 -76z"/>
<path d="M11913 1605 c0 -33 2 -45 4 -27 2 18 2 45 0 60 -2 15 -4 0 -4 -33z"/>
<path d="M7588 1553 c6 -151 20 -174 21 -35 1 91 -2 122 -11 122 -10 0 -12
-22 -10 -87z"/>
<path d="M7660 1624 c0 -14 3 -15 18 -3 9 7 19 15 21 16 2 2 -5 3 -17 3 -14 0
-22 -6 -22 -16z"/>
<path d="M8035 1630 c3 -5 11 -10 16 -10 6 0 7 5 4 10 -3 6 -11 10 -16 10 -6
0 -7 -4 -4 -10z"/>
<path d="M9871 1592 c-14 -57 -10 -78 9 -42 6 11 10 38 8 58 l-3 37 -14 -53z"/>
<path d="M11150 1630 c-9 -6 -10 -10 -3 -10 6 0 15 5 18 10 8 12 4 12 -15 0z"/>
<path d="M14118 1568 c5 -114 9 -122 11 -20 0 50 -3 92 -7 92 -4 0 -6 -33 -4
-72z"/>
<path d="M15244 1540 c0 -58 1 -81 3 -52 2 28 2 76 0 105 -2 28 -3 5 -3 -53z"/>
<path d="M8299 1613 c-13 -16 -12 -17 4 -4 16 13 21 21 13 21 -2 0 -10 -8 -17
-17z"/>
<path d="M8410 1620 c0 -5 5 -10 11 -10 5 0 7 5 4 10 -3 6 -8 10 -11 10 -2 0
-4 -4 -4 -10z"/>
<path d="M8938 1588 c-4 -75 3 -173 13 -183 5 -5 9 35 9 102 0 64 -4 114 -10
118 -6 4 -11 -11 -12 -37z"/>
<path d="M9721 1620 c1 -8 5 -26 9 -40 l8 -25 1 25 c0 14 -4 32 -9 40 -9 13
-10 13 -9 0z"/>
<path d="M10511 1548 c0 -46 4 -103 8 -128 7 -35 9 -18 10 77 0 72 -3 124 -9
128 -6 4 -10 -24 -9 -77z"/>
<path d="M11753 1580 c0 -30 2 -43 4 -27 2 15 2 39 0 55 -2 15 -4 2 -4 -28z"/>
<path d="M13996 1615 c4 -8 8 -15 10 -15 2 0 4 7 4 15 0 8 -4 15 -10 15 -5 0
-7 -7 -4 -15z"/>
<path d="M14435 1620 c-3 -5 -2 -10 4 -10 5 0 13 5 16 10 3 6 2 10 -4 10 -5 0
-13 -4 -16 -10z"/>
<path d="M7923 1597 c-16 -35 -18 -201 -2 -191 6 3 8 16 5 28 -3 11 -1 49 5
82 6 34 9 72 7 85 -3 23 -3 23 -15 -4z"/>
<path d="M13180 1596 c-11 -31 -14 -233 -3 -222 7 7 23 237 17 245 -2 2 -8 -8
-14 -23z"/>
<path d="M9310 1588 c0 -27 -1 -27 -77 -31 l-78 -3 93 -2 c98 -2 108 3 77 44
-14 18 -14 18 -15 -8z"/>
<path d="M9656 1576 c-5 -28 -1 -44 19 -77 15 -22 29 -39 31 -36 6 6 -26 128
-36 140 -4 5 -10 -7 -14 -27z"/>
<path d="M13769 1570 c-13 -41 -5 -66 11 -40 10 15 14 80 5 80 -2 0 -10 -18
-16 -40z"/>
<path d="M14350 1584 c-6 -14 -9 -42 -9 -62 1 -32 2 -31 9 14 4 29 11 57 14
63 4 6 5 11 1 11 -3 0 -10 -12 -15 -26z"/>
<path d="M9461 1586 c-1 -23 19 -98 30 -110 4 -5 1 18 -7 50 -19 75 -22 83
-23 60z"/>
<path d="M10171 1563 c-13 -47 -14 -145 -2 -123 11 18 26 160 18 160 -3 0 -11
-17 -16 -37z"/>
<path d="M11031 1564 c-19 -32 -20 -40 -9 -71 23 -64 33 -56 33 28 0 43 -1 79
-2 79 0 0 -11 -16 -22 -36z"/>
<path d="M12260 1513 c0 -49 4 -94 9 -101 10 -16 24 148 15 172 -15 38 -24 10
-24 -71z"/>
<path d="M12808 1587 c-16 -38 -8 -121 13 -147 16 -20 19 -21 13 -5 -4 11 -10
54 -13 95 -4 48 -9 68 -13 57z"/>
<path d="M13951 1520 c0 -45 3 -59 9 -45 12 27 12 77 0 95 -7 10 -10 -5 -9
-50z"/>
<path d="M8313 1553 c26 -2 68 -2 95 0 26 2 4 3 -48 3 -52 0 -74 -1 -47 -3z"/>
<path d="M9088 1548 c-2 -7 -1 -26 3 -43 6 -28 7 -26 8 13 1 42 -3 53 -11 30z"/>
<path d="M13498 1533 c-18 -15 -34 -28 -36 -29 -2 -1 4 -19 14 -40 11 -26 18
-34 22 -24 23 64 40 120 37 120 -2 0 -18 -12 -37 -27z"/>
<path d="M15886 1547 c-5 -9 -5 -34 0 -55 7 -34 8 -35 12 -9 2 15 2 39 0 55
-4 22 -6 24 -12 9z"/>
<path d="M8193 1542 c-9 -5 -7 -13 5 -30 l17 -22 2 30 c2 31 -3 35 -24 22z"/>
<path d="M14661 1515 c0 -35 2 -37 11 -19 7 15 7 28 -1 40 -9 16 -10 12 -10
-21z"/>
<path d="M16281 1516 c-15 -16 -21 -32 -18 -48 4 -22 4 -22 6 -1 0 12 12 31
26 41 14 11 22 23 17 26 -5 3 -19 -5 -31 -18z"/>
<path d="M9546 1485 c16 -87 20 -94 28 -46 6 38 4 48 -14 65 l-21 21 7 -40z"/>
<path d="M15470 1501 c-12 -24 -13 -98 -1 -105 5 -3 6 15 3 39 -3 35 0 50 13
65 10 11 13 20 7 20 -6 0 -16 -9 -22 -19z"/>
<path d="M16400 1500 c6 -11 13 -20 16 -20 2 0 0 9 -6 20 -6 11 -13 20 -16 20
-2 0 0 -9 6 -20z"/>
<path d="M8270 1494 c0 -17 22 -14 28 4 2 7 -3 12 -12 12 -9 0 -16 -7 -16 -16z"/>
<path d="M9753 1495 c3 -11 9 -38 13 -60 l8 -40 7 35 c6 27 3 39 -13 60 -17
20 -19 21 -15 5z"/>
<path d="M8732 1470 c0 -19 2 -27 5 -17 2 9 2 25 0 35 -3 9 -5 1 -5 -18z"/>
<path d="M12057 1483 c-11 -10 -8 -51 3 -58 6 -4 10 8 10 29 0 37 -2 41 -13
29z"/>
<path d="M13770 1473 c0 -12 5 -25 10 -28 13 -8 13 15 0 35 -8 12 -10 11 -10
-7z"/>
<path d="M13551 1453 c-1 -6 -4 -20 -7 -30 -5 -17 -5 -17 6 0 6 10 9 23 6 30
-3 9 -5 9 -5 0z"/>
<path d="M7660 1432 c0 -13 27 -35 39 -30 5 1 -2 11 -15 21 -13 10 -24 14 -24
9z"/>
<path d="M11292 1390 c-8 -13 -8 -20 -2 -20 6 0 13 7 17 15 9 24 -1 27 -15 5z"/>
<path d="M13430 1370 c0 -23 -7 -54 -15 -70 -17 -33 -7 -40 17 -12 22 25 30
58 23 92 -10 43 -25 37 -25 -10z"/>
<path d="M13760 1365 c0 -40 -1 -39 34 -22 l25 14 -29 22 -30 22 0 -36z"/>
<path d="M15671 1386 c-9 -11 -7 -15 14 -18 22 -5 24 -3 13 11 -7 9 -13 17
-14 19 -1 1 -6 -4 -13 -12z"/>
<path d="M9340 1375 c-8 -9 -8 -15 -2 -15 12 0 26 19 19 26 -2 2 -10 -2 -17
-11z"/>
<path d="M10720 1380 c0 -6 7 -13 15 -17 24 -9 27 1 5 15 -13 8 -20 8 -20 2z"/>
<path d="M12210 1375 c7 -8 17 -15 22 -15 6 0 5 7 -2 15 -7 8 -17 15 -22 15
-6 0 -5 -7 2 -15z"/>
<path d="M9150 1376 c0 -2 7 -7 16 -10 8 -3 12 -2 9 4 -6 10 -25 14 -25 6z"/>
<path d="M11105 1370 c3 -5 14 -10 23 -10 15 0 15 2 2 10 -20 13 -33 13 -25 0z"/>
</g>
</svg>
